<svg xmlns="http://www.w3.org/2000/svg" viewBox="0 0 34 23" style="enable-background:new 0 0 34 23" xml:space="preserve" width="32" height="32"><path d="M1 6.8 17.1.9l16 6.1-5.8 2.5.1 5.1s-.1 1.2-.4 1.5c-.3.3-1.4 1.3-1.7 1.3s-.2 3.3-.2 3.3-.1.8-.7.9c-.6.1-1.4.3-1.5 0s-.3-2.8-.3-2.8-4.4.7-5.4.7-5.7-.5-7-1c-1.3-.6-3.4-2-3.5-3-.1-1 0-6.3 0-6.3L1 6.8z" style="fill:#fff"/><path d="m33.5 7-16.4 6.1L.7 7 17.1.9 33.5 7zm-16.4-.8c.9 0 1.6.4 1.6.8 0 .5-.7.8-1.6.8s-1.5-.4-1.5-.8c-.1-.5.6-.8 1.5-.8zm6.8 6.7v-2.3l-5.7-3m5.7 5.3c-.6 0-1.2.5-1.2 1.1v6.6c0 .6.5 1.1 1.2 1.1.6 0 1.2-.5 1.2-1.1V14c-.1-.6-.6-1.1-1.2-1.1zm-1.2 5.8c-3.1.9-8.3 1-11.4 0-2.4-.8-4.6-1.9-4.6-4.2v-4.3c0-.3 0-.6.1-.8m20.5-.1c.1.3.1.6.1.8v4.3c0 1.6-1 2.6-2.4 3.3" style="fill:none;stroke:#231f20;stroke-linejoin:round;stroke-miterlimit:10"/></svg>